<svg width="75" height="75" viewBox="0 0 75 75" fill="none" xmlns="http://www.w3.org/2000/svg">
<g clip-path="url(#clip0_174:818)">
<path d="M67.6404 18.0182H65.9731V16.351C65.9731 12.4263 62.7803 9.23334 58.8555 9.23334H7.76478C3.84001 9.23334 0.647095 12.4264 0.647095 16.351V49.7915C0.647095 53.7161 3.84014 56.9091 7.76478 56.9091H9.43194V58.5763C9.43194 62.5011 12.625 65.694 16.5496 65.694H67.6401C71.5649 65.694 74.7579 62.5011 74.7579 58.5763V25.1358C74.7578 21.2111 71.565 18.0182 67.6404 18.0182ZM69.5132 58.5762C69.5132 59.6107 68.6746 60.4492 67.6403 60.4492H16.5496C15.5151 60.4492 14.6766 59.6107 14.6766 58.5762V56.909V54.2867V51.6644V25.1358C14.6766 24.1012 15.5151 23.2628 16.5496 23.2628H60.7285H63.3508H65.9731H67.6404C68.6747 23.2628 69.5133 24.1014 69.5133 25.1358V58.5762H69.5132ZM5.89171 49.7913V16.351C5.89171 15.3165 6.7303 14.4779 7.76478 14.4779H58.8555C59.8899 14.4779 60.7285 15.3165 60.7285 16.351V18.0182H16.5496C12.625 18.0182 9.43194 21.2112 9.43194 25.1358V51.6644H7.7649C6.7303 51.6644 5.89171 50.8258 5.89171 49.7913Z" fill="#00AC4E"/>
<path d="M67.6407 65.7558H16.5501C12.5917 65.7558 9.37121 62.5353 9.37121 58.5769V56.971H7.76538C3.80695 56.971 0.586487 53.7505 0.586487 49.7921V16.3517C0.586487 12.3933 3.80695 9.17285 7.76538 9.17285H58.8561C62.8144 9.17285 66.0349 12.3933 66.0349 16.3517V17.9577H67.641C71.5993 17.9577 74.8198 21.1781 74.8198 25.1366V58.5769C74.8196 62.5353 71.5993 65.7558 67.6407 65.7558ZM7.76538 9.29515C3.87441 9.29515 0.70891 12.4608 0.70891 16.3517V49.7922C0.70891 53.683 3.87441 56.8487 7.76538 56.8487H9.49376V58.577C9.49376 62.4679 12.6593 65.6335 16.5502 65.6335H67.6407C71.5317 65.6335 74.6973 62.468 74.6973 58.577V25.1366C74.6973 21.2456 71.532 18.0801 67.641 18.0801H65.9125V16.3517C65.9125 12.4608 62.7471 9.29527 58.8561 9.29527H7.76538V9.29515ZM67.641 60.5112H16.5502C15.4837 60.5112 14.6159 59.6435 14.6159 58.5769V25.1366C14.6159 24.07 15.4837 23.2023 16.5502 23.2023H67.641C68.7075 23.2023 69.5751 24.07 69.5751 25.1366V58.5769C69.575 59.6435 68.7074 60.5112 67.641 60.5112ZM16.5502 23.3247C15.5511 23.3247 14.7384 24.1376 14.7384 25.1366V58.5769C14.7384 59.576 15.5511 60.3888 16.5502 60.3888H67.641C68.64 60.3888 69.4527 59.576 69.4527 58.5769V25.1366C69.4527 24.1375 68.64 23.3247 67.641 23.3247H16.5502ZM9.49376 51.7264H7.76551C6.69896 51.7264 5.8311 50.8586 5.8311 49.7921V16.3517C5.8311 15.2852 6.69883 14.4175 7.76538 14.4175H58.8561C59.9227 14.4175 60.7903 15.2852 60.7903 16.3517V18.0801H16.5502C12.6593 18.0801 9.49376 21.2456 9.49376 25.1366V51.7264ZM7.76538 14.5398C6.76629 14.5398 5.95352 15.3525 5.95352 16.3516V49.7921C5.95352 50.791 6.76641 51.6039 7.76551 51.6039H9.37145V25.1366C9.37145 21.1781 12.5919 17.9577 16.5504 17.9577H60.668V16.3517C60.668 15.3526 59.8552 14.5399 58.8563 14.5399H7.76538V14.5398Z" fill="#00AC4E"/>
<path d="M62.047 52.6834L60.3213 50.9576L51.9657 42.602C51.2342 41.8704 50.0483 41.8704 49.3168 42.602L44.5689 47.3498L35.6992 38.4801C34.9677 37.7485 33.7817 37.7485 33.0503 38.4801L19.8655 51.6649L18.8469 52.6834C18.4099 53.1204 18.2342 53.7196 18.3193 54.2872C18.3767 54.6697 18.5524 55.0379 18.8469 55.3324L19.9066 56.3919C20.1859 56.6712 20.5315 56.8434 20.8926 56.9095C21.1163 56.9504 21.3458 56.9504 21.5694 56.9095C21.9306 56.8435 22.2762 56.6713 22.5555 56.3919L24.6602 54.2872L27.2825 51.6649L33.0502 45.8972C33.7817 45.1656 34.9677 45.1656 35.6991 45.8972L41.4667 51.6649L44.089 54.2872L46.1938 56.3919C46.4731 56.6712 46.8187 56.8434 47.1799 56.9095C47.4035 56.9504 47.633 56.9504 47.8566 56.9095C48.2178 56.8435 48.5633 56.6713 48.8427 56.3919L49.9024 55.3324C50.1967 55.0378 50.3725 54.6697 50.4299 54.2872C50.515 53.7196 50.3396 53.1205 49.9024 52.6834L48.8838 51.6649L48.2775 51.0584L50.6411 48.6946L53.6116 51.6649L56.2339 54.2872L58.3384 56.3919C58.6024 56.6557 58.9257 56.824 59.2652 56.8974C59.7102 56.9938 60.1831 56.9267 60.5887 56.6959C60.7314 56.6146 60.8659 56.5137 60.9876 56.392L62.047 55.3325C62.7339 54.6457 62.7758 53.5582 62.173 52.8224C62.1336 52.7746 62.0917 52.7282 62.047 52.6834Z" fill="#00AC4E"/>
<path d="M47.5185 57.0016C47.4016 57.0016 47.2841 56.9909 47.1691 56.9699C46.7818 56.8992 46.4297 56.7143 46.1508 56.4354L35.656 45.9406C35.3138 45.5983 34.8587 45.4099 34.3748 45.4099C33.8909 45.4099 33.4358 45.5983 33.0936 45.9406L22.5989 56.4354C22.3202 56.7143 21.9679 56.8992 21.5806 56.9699C21.3508 57.0118 21.1117 57.0118 20.8818 56.9699C20.4945 56.8992 20.1424 56.7143 19.8635 56.4354L18.8038 55.3759C18.5091 55.0813 18.3207 54.7081 18.2589 54.2966C18.1682 53.6916 18.3719 53.0724 18.8038 52.6405L33.0072 38.4372C33.3725 38.0719 33.8583 37.8706 34.3749 37.8706C34.8915 37.8706 35.3773 38.0719 35.7426 38.4372L44.5691 47.2636L49.2738 42.559C49.6391 42.1937 50.1248 41.9925 50.6415 41.9925C51.1583 41.9925 51.6439 42.1937 52.0092 42.559L62.0906 52.6405C62.1351 52.685 62.1789 52.7332 62.2206 52.7837C62.8529 53.5554 62.7969 54.6697 62.0906 55.376L61.0311 56.4356C60.9089 56.5577 60.7703 56.6633 60.6193 56.7493C60.3295 56.9144 59.9992 57.0015 59.6639 57.0015C59.6638 57.0015 59.6638 57.0015 59.6638 57.0015C59.5257 57.0015 59.3873 56.9868 59.2527 56.9576C58.8896 56.8791 58.5586 56.6987 58.2956 56.4356L50.6415 48.7816L48.3645 51.0589L49.9462 52.6406C50.378 53.0724 50.5816 53.6916 50.4908 54.2967C50.4291 54.7079 50.2408 55.0811 49.9462 55.376L48.8865 56.4356C48.6076 56.7144 48.2555 56.8993 47.8682 56.9701C47.753 56.9909 47.6354 57.0016 47.5185 57.0016ZM34.3749 45.2875C34.8915 45.2875 35.3773 45.4887 35.7426 45.8541L46.2375 56.3489C46.4987 56.6101 46.8285 56.7832 47.1913 56.8495C47.4065 56.8889 47.6308 56.8889 47.846 56.8495C48.2087 56.7832 48.5386 56.6101 48.7998 56.3489L49.8595 55.2893C50.1354 55.0131 50.3119 54.6636 50.3698 54.2784C50.4547 53.7114 50.264 53.1315 49.8595 52.7269L48.1912 51.0586L50.6414 48.6082L58.3821 56.3489C58.6287 56.5953 58.9385 56.7644 59.2785 56.8378C59.7116 56.9314 60.1756 56.8609 60.5588 56.6428C60.7003 56.5623 60.8302 56.4632 60.9446 56.3489L62.004 55.2893C62.6656 54.6279 62.718 53.584 62.1259 52.8613C62.0869 52.814 62.0459 52.7688 62.004 52.7269L51.9227 42.6455C51.5805 42.3032 51.1255 42.1148 50.6415 42.1148C50.1576 42.1148 49.7026 42.3032 49.3604 42.6455L44.5691 47.4366L35.6561 38.5236C35.3139 38.1813 34.8589 37.9929 34.3749 37.9929C33.891 37.9929 33.4361 38.1813 33.0938 38.5236L18.8905 52.7269C18.4859 53.1315 18.2951 53.7115 18.3802 54.2784C18.438 54.6637 18.6145 55.0134 18.8905 55.2893L19.9502 56.3489C20.2114 56.6101 20.5412 56.7832 20.904 56.8495C21.1194 56.8889 21.3435 56.8889 21.5588 56.8495C21.9215 56.7832 22.2515 56.6101 22.5126 56.3489L33.0073 45.8541C33.3725 45.4887 33.8583 45.2875 34.3749 45.2875Z" fill="#00AC4E"/>
<path d="M60.7284 26.5417C59.9116 26.2207 59.0226 26.0443 58.0935 26.0443C54.1085 26.0443 50.8665 29.2863 50.8665 33.2711C50.8665 37.2561 54.1085 40.498 58.0935 40.498C59.0227 40.498 59.9118 40.3216 60.7284 40.0006C61.7309 39.6066 62.6243 38.995 63.3508 38.2242C64.5712 36.9297 65.3203 35.1864 65.3203 33.2711C65.3203 31.3559 64.5712 29.6125 63.3508 28.318C62.6243 27.5472 61.7307 26.9355 60.7284 26.5417ZM58.0932 35.2534C56.9986 35.2534 56.111 34.3658 56.111 33.2711C56.111 32.1764 56.9986 31.289 58.0932 31.289C59.188 31.289 60.0756 32.1765 60.0756 33.2711C60.0757 34.3658 59.1881 35.2534 58.0932 35.2534Z" fill="#00AC4E"/>
<path d="M58.0941 40.5597C54.0753 40.5597 50.8058 37.2903 50.8058 33.2717C50.8058 29.253 54.0753 25.9836 58.0941 25.9836C59.01 25.9836 59.9042 26.1524 60.7514 26.4853C61.7447 26.8756 62.6592 27.495 63.396 28.2766C64.6768 29.6352 65.3822 31.4091 65.3822 33.2717C65.3822 35.1342 64.6768 36.9081 63.396 38.2668C62.6595 39.0482 61.7451 39.6675 60.7514 40.0582C59.9043 40.3909 59.0104 40.5597 58.0941 40.5597ZM58.0941 26.106C54.1429 26.106 50.9283 29.3205 50.9283 33.2717C50.9283 37.2229 54.1429 40.4373 58.0941 40.4373C58.9949 40.4373 59.8739 40.2714 60.7067 39.9441C61.6835 39.5602 62.5826 38.9512 63.3067 38.1828C64.5661 36.8469 65.2596 35.1029 65.2596 33.2717C65.2596 31.4405 64.5661 29.6963 63.3067 28.3605C62.5825 27.5921 61.6833 26.983 60.7067 26.5992C59.8737 26.272 58.9949 26.106 58.0941 26.106ZM58.0938 35.3153C56.967 35.3153 56.0505 34.3986 56.0505 33.2718C56.0505 32.145 56.967 31.2284 58.0938 31.2284C59.2207 31.2284 60.1374 32.1451 60.1374 33.2718C60.1376 34.3986 59.2207 35.3153 58.0938 35.3153ZM58.0938 31.3507C57.0346 31.3507 56.1729 32.2125 56.1729 33.2717C56.1729 34.331 57.0346 35.1927 58.0938 35.1927C59.1532 35.1927 60.015 34.3309 60.015 33.2717C60.0151 32.2125 59.1533 31.3507 58.0938 31.3507Z" fill="#00AC4E"/>
</g>
<defs>
<clipPath id="clip0_174:818">
<rect width="74.2331" height="74.2331" fill="white" transform="translate(0.586487 0.347778)"/>
</clipPath>
</defs>
</svg>
